<?xml version="1.0" encoding="UTF-8" standalone="no"?>
<!-- Created with Inkscape (http://www.inkscape.org/) -->

<svg
   xmlns:osb="http://www.openswatchbook.org/uri/2009/osb"
   xmlns:dc="http://purl.org/dc/elements/1.1/"
   xmlns:cc="http://creativecommons.org/ns#"
   xmlns:rdf="http://www.w3.org/1999/02/22-rdf-syntax-ns#"
   xmlns:svg="http://www.w3.org/2000/svg"
   xmlns="http://www.w3.org/2000/svg"
   xmlns:xlink="http://www.w3.org/1999/xlink"
   xmlns:sodipodi="http://sodipodi.sourceforge.net/DTD/sodipodi-0.dtd"
   xmlns:inkscape="http://www.inkscape.org/namespaces/inkscape"
   width="765px"
   height="417px"
   viewBox="0 0 765 417"
   version="1.1"
   id="SVGRoot"
   inkscape:version="0.92.4 (5da689c313, 2019-01-14)"
   sodipodi:docname="attack3logitech.svg">
  <defs
     id="defs1476">
    <linearGradient
       inkscape:collect="always"
       id="linearGradient8281">
      <stop
         style="stop-color:#4d4d4d;stop-opacity:1;"
         offset="0"
         id="stop8277" />
      <stop
         style="stop-color:#4d4d4d;stop-opacity:1"
         offset="1"
         id="stop8279" />
    </linearGradient>
    <linearGradient
       id="linearGradient8228">
      <stop
         style="stop-color:#333333;stop-opacity:1;"
         offset="0"
         id="stop8256" />
    </linearGradient>
    <linearGradient
       osb:paint="solid"
       id="linearGradient8242">
      <stop
         id="stop8240"
         offset="0"
         style="stop-color:#cccccc;stop-opacity:1;" />
    </linearGradient>
    <linearGradient
       osb:paint="solid"
       id="linearGradient6279">
      <stop
         id="stop6277"
         offset="0"
         style="stop-color:#000000;stop-opacity:1;" />
    </linearGradient>
    <clipPath
       id="clipPath6450"
       clipPathUnits="userSpaceOnUse">
      <path
         sodipodi:nodetypes="ccscssssscsssscscccscscccccccccsscccc"
         inkscape:connector-curvature="0"
         id="path6452"
         d="m 48.636481,277.45746 c -0.829339,-1.26574 -1.086411,-4.22791 -0.516726,-5.95406 1.006094,-3.0485 3.326778,-4.78123 9.732412,-7.26668 14.934573,-5.79476 23.9195,-16.09016 23.057763,-26.42081 -0.120166,-1.44058 -0.640408,-4.47142 -1.156092,-6.73519 -1.607788,-7.05795 -2.195962,-13.8591 -2.184257,-25.25697 0.01212,-11.80055 0.70788,-20.82003 2.350839,-30.47478 1.609937,-9.46069 2.009677,-14.83958 1.762035,-23.70997 -0.23318,-8.35249 -0.56329,-10.53509 -2.619034,-17.31636 -2.921214,-9.63617 -3.7983,-15.81157 -3.79508,-26.72043 0.0026,-8.931732 0.536784,-12.968954 2.15351,-16.276719 1.001186,-2.048394 2.25584,-2.730042 6.848549,-3.720777 9.737347,-2.100527 19.68742,-2.374218 28.77293,-0.791438 7.69038,1.339736 9.59272,2.112058 10.66665,4.330494 1.66717,3.443909 2.03842,6.477124 2.03735,16.64552 -0.001,12.02971 -0.68493,16.94558 -3.72069,26.75345 -2.28702,7.38884 -2.60128,9.81575 -2.59226,20.01872 0.008,9.39781 0.39522,13.62608 2.0372,22.26355 1.41738,7.45593 2.0181,16.11209 2.01248,28.99874 -0.006,13.18161 -0.42114,18.00156 -2.24069,25.99994 -1.03299,4.5408 -1.23818,9.1598 -0.52462,11.80974 0.21776,0.80869 0.51545,1.64072 0.88244,2.4806 1.57087,3.59506 4.41134,7.33383 7.68645,10.00022 4.41511,3.59448 10.51367,7.07458 14.81241,8.45257 4.12996,1.3239 7.86983,4.08768 8.77089,6.48169 0.7017,1.86436 0.496,5.26727 -0.38619,6.38881 l -0.78265,0.99497 -20.91134,-0.10261 -20.91133,-0.1026 -0.94934,-0.94957 c -0.71636,-0.71649 -1.0956,-1.72662 -1.54531,-4.11594 -1.07762,-5.72547 -3.16311,-8.21779 -6.87639,-8.21779 -3.661884,0 -5.966603,2.80609 -6.729563,8.19356 -0.363961,2.57003 -1.179492,4.04222 -2.660952,4.80359 -0.681088,0.35002 -5.869228,0.46352 -21.376952,0.4677 l -20.477583,0.006 z"
         style="fill:none;fill-opacity:1;stroke:none;stroke-width:0.26458332;stroke-opacity:1;paint-order:stroke fill markers" />
    </clipPath>
    <clipPath
       id="clipPath6450-4"
       clipPathUnits="userSpaceOnUse">
      <path
         sodipodi:nodetypes="ccscssssscsssscscccscscccccccccsscccc"
         inkscape:connector-curvature="0"
         id="path6452-6"
         d="m 48.636481,277.45746 c -0.829339,-1.26574 -1.086411,-4.22791 -0.516726,-5.95406 1.006094,-3.0485 3.326778,-4.78123 9.732412,-7.26668 14.934573,-5.79476 23.9195,-16.09016 23.057763,-26.42081 -0.120166,-1.44058 -0.640408,-4.47142 -1.156092,-6.73519 -1.607788,-7.05795 -2.195962,-13.8591 -2.184257,-25.25697 0.01212,-11.80055 0.70788,-20.82003 2.350839,-30.47478 1.609937,-9.46069 2.009677,-14.83958 1.762035,-23.70997 -0.23318,-8.35249 -0.56329,-10.53509 -2.619034,-17.31636 -2.921214,-9.63617 -3.7983,-15.81157 -3.79508,-26.72043 0.0026,-8.931732 0.536784,-12.968954 2.15351,-16.276719 1.001186,-2.048394 2.25584,-2.730042 6.848549,-3.720777 9.737347,-2.100527 19.68742,-2.374218 28.77293,-0.791438 7.69038,1.339736 9.59272,2.112058 10.66665,4.330494 1.66717,3.443909 2.03842,6.477124 2.03735,16.64552 -0.001,12.02971 -0.68493,16.94558 -3.72069,26.75345 -2.28702,7.38884 -2.60128,9.81575 -2.59226,20.01872 0.008,9.39781 0.39522,13.62608 2.0372,22.26355 1.41738,7.45593 2.0181,16.11209 2.01248,28.99874 -0.006,13.18161 -0.42114,18.00156 -2.24069,25.99994 -1.03299,4.5408 -1.23818,9.1598 -0.52462,11.80974 0.21776,0.80869 0.51545,1.64072 0.88244,2.4806 1.57087,3.59506 4.41134,7.33383 7.68645,10.00022 4.41511,3.59448 10.51367,7.07458 14.81241,8.45257 4.12996,1.3239 7.86983,4.08768 8.77089,6.48169 0.7017,1.86436 0.496,5.26727 -0.38619,6.38881 l -0.78265,0.99497 -20.91134,-0.10261 -20.91133,-0.1026 -0.94934,-0.94957 c -0.71636,-0.71649 -1.0956,-1.72662 -1.54531,-4.11594 -1.07762,-5.72547 -3.16311,-8.21779 -6.87639,-8.21779 -3.661884,0 -5.966603,2.80609 -6.729563,8.19356 -0.363961,2.57003 -1.179492,4.04222 -2.660952,4.80359 -0.681088,0.35002 -5.869228,0.46352 -21.376952,0.4677 l -20.477583,0.006 z"
         style="fill:none;fill-opacity:1;stroke:none;stroke-width:0.26458332;stroke-opacity:1;paint-order:stroke fill markers" />
    </clipPath>
    <clipPath
       id="clipPath6450-8"
       clipPathUnits="userSpaceOnUse">
      <path
         sodipodi:nodetypes="ccscssssscsssscscccscscccccccccsscccc"
         inkscape:connector-curvature="0"
         id="path6452-5"
         d="m 48.636481,277.45746 c -0.829339,-1.26574 -1.086411,-4.22791 -0.516726,-5.95406 1.006094,-3.0485 3.326778,-4.78123 9.732412,-7.26668 14.934573,-5.79476 23.9195,-16.09016 23.057763,-26.42081 -0.120166,-1.44058 -0.640408,-4.47142 -1.156092,-6.73519 -1.607788,-7.05795 -2.195962,-13.8591 -2.184257,-25.25697 0.01212,-11.80055 0.70788,-20.82003 2.350839,-30.47478 1.609937,-9.46069 2.009677,-14.83958 1.762035,-23.70997 -0.23318,-8.35249 -0.56329,-10.53509 -2.619034,-17.31636 -2.921214,-9.63617 -3.7983,-15.81157 -3.79508,-26.72043 0.0026,-8.931732 0.536784,-12.968954 2.15351,-16.276719 1.001186,-2.048394 2.25584,-2.730042 6.848549,-3.720777 9.737347,-2.100527 19.68742,-2.374218 28.77293,-0.791438 7.69038,1.339736 9.59272,2.112058 10.66665,4.330494 1.66717,3.443909 2.03842,6.477124 2.03735,16.64552 -0.001,12.02971 -0.68493,16.94558 -3.72069,26.75345 -2.28702,7.38884 -2.60128,9.81575 -2.59226,20.01872 0.008,9.39781 0.39522,13.62608 2.0372,22.26355 1.41738,7.45593 2.0181,16.11209 2.01248,28.99874 -0.006,13.18161 -0.42114,18.00156 -2.24069,25.99994 -1.03299,4.5408 -1.23818,9.1598 -0.52462,11.80974 0.21776,0.80869 0.51545,1.64072 0.88244,2.4806 1.57087,3.59506 4.41134,7.33383 7.68645,10.00022 4.41511,3.59448 10.51367,7.07458 14.81241,8.45257 4.12996,1.3239 7.86983,4.08768 8.77089,6.48169 0.7017,1.86436 0.496,5.26727 -0.38619,6.38881 l -0.78265,0.99497 -20.91134,-0.10261 -20.91133,-0.1026 -0.94934,-0.94957 c -0.71636,-0.71649 -1.0956,-1.72662 -1.54531,-4.11594 -1.07762,-5.72547 -3.16311,-8.21779 -6.87639,-8.21779 -3.661884,0 -5.966603,2.80609 -6.729563,8.19356 -0.363961,2.57003 -1.179492,4.04222 -2.660952,4.80359 -0.681088,0.35002 -5.869228,0.46352 -21.376952,0.4677 l -20.477583,0.006 z"
         style="fill:none;fill-opacity:1;stroke:none;stroke-width:0.26458332;stroke-opacity:1;paint-order:stroke fill markers" />
    </clipPath>
    <clipPath
       id="clipPath6450-8-6"
       clipPathUnits="userSpaceOnUse">
      <path
         sodipodi:nodetypes="ccscssssscsssscscccscscccccccccsscccc"
         inkscape:connector-curvature="0"
         id="path6452-5-1"
         d="m 48.636481,277.45746 c -0.829339,-1.26574 -1.086411,-4.22791 -0.516726,-5.95406 1.006094,-3.0485 3.326778,-4.78123 9.732412,-7.26668 14.934573,-5.79476 23.9195,-16.09016 23.057763,-26.42081 -0.120166,-1.44058 -0.640408,-4.47142 -1.156092,-6.73519 -1.607788,-7.05795 -2.195962,-13.8591 -2.184257,-25.25697 0.01212,-11.80055 0.70788,-20.82003 2.350839,-30.47478 1.609937,-9.46069 2.009677,-14.83958 1.762035,-23.70997 -0.23318,-8.35249 -0.56329,-10.53509 -2.619034,-17.31636 -2.921214,-9.63617 -3.7983,-15.81157 -3.79508,-26.72043 0.0026,-8.931732 0.536784,-12.968954 2.15351,-16.276719 1.001186,-2.048394 2.25584,-2.730042 6.848549,-3.720777 9.737347,-2.100527 19.68742,-2.374218 28.77293,-0.791438 7.69038,1.339736 9.59272,2.112058 10.66665,4.330494 1.66717,3.443909 2.03842,6.477124 2.03735,16.64552 -0.001,12.02971 -0.68493,16.94558 -3.72069,26.75345 -2.28702,7.38884 -2.60128,9.81575 -2.59226,20.01872 0.008,9.39781 0.39522,13.62608 2.0372,22.26355 1.41738,7.45593 2.0181,16.11209 2.01248,28.99874 -0.006,13.18161 -0.42114,18.00156 -2.24069,25.99994 -1.03299,4.5408 -1.23818,9.1598 -0.52462,11.80974 0.21776,0.80869 0.51545,1.64072 0.88244,2.4806 1.57087,3.59506 4.41134,7.33383 7.68645,10.00022 4.41511,3.59448 10.51367,7.07458 14.81241,8.45257 4.12996,1.3239 7.86983,4.08768 8.77089,6.48169 0.7017,1.86436 0.496,5.26727 -0.38619,6.38881 l -0.78265,0.99497 -20.91134,-0.10261 -20.91133,-0.1026 -0.94934,-0.94957 c -0.71636,-0.71649 -1.0956,-1.72662 -1.54531,-4.11594 -1.07762,-5.72547 -3.16311,-8.21779 -6.87639,-8.21779 -3.661884,0 -5.966603,2.80609 -6.729563,8.19356 -0.363961,2.57003 -1.179492,4.04222 -2.660952,4.80359 -0.681088,0.35002 -5.869228,0.46352 -21.376952,0.4677 l -20.477583,0.006 z"
         style="fill:none;fill-opacity:1;stroke:none;stroke-width:0.26458332;stroke-opacity:1;paint-order:stroke fill markers" />
    </clipPath>
    <clipPath
       id="clipPath6450-8-8"
       clipPathUnits="userSpaceOnUse">
      <path
         sodipodi:nodetypes="ccscssssscsssscscccscscccccccccsscccc"
         inkscape:connector-curvature="0"
         id="path6452-5-17"
         d="m 48.636481,277.45746 c -0.829339,-1.26574 -1.086411,-4.22791 -0.516726,-5.95406 1.006094,-3.0485 3.326778,-4.78123 9.732412,-7.26668 14.934573,-5.79476 23.9195,-16.09016 23.057763,-26.42081 -0.120166,-1.44058 -0.640408,-4.47142 -1.156092,-6.73519 -1.607788,-7.05795 -2.195962,-13.8591 -2.184257,-25.25697 0.01212,-11.80055 0.70788,-20.82003 2.350839,-30.47478 1.609937,-9.46069 2.009677,-14.83958 1.762035,-23.70997 -0.23318,-8.35249 -0.56329,-10.53509 -2.619034,-17.31636 -2.921214,-9.63617 -3.7983,-15.81157 -3.79508,-26.72043 0.0026,-8.931732 0.536784,-12.968954 2.15351,-16.276719 1.001186,-2.048394 2.25584,-2.730042 6.848549,-3.720777 9.737347,-2.100527 19.68742,-2.374218 28.77293,-0.791438 7.69038,1.339736 9.59272,2.112058 10.66665,4.330494 1.66717,3.443909 2.03842,6.477124 2.03735,16.64552 -0.001,12.02971 -0.68493,16.94558 -3.72069,26.75345 -2.28702,7.38884 -2.60128,9.81575 -2.59226,20.01872 0.008,9.39781 0.39522,13.62608 2.0372,22.26355 1.41738,7.45593 2.0181,16.11209 2.01248,28.99874 -0.006,13.18161 -0.42114,18.00156 -2.24069,25.99994 -1.03299,4.5408 -1.23818,9.1598 -0.52462,11.80974 0.21776,0.80869 0.51545,1.64072 0.88244,2.4806 1.57087,3.59506 4.41134,7.33383 7.68645,10.00022 4.41511,3.59448 10.51367,7.07458 14.81241,8.45257 4.12996,1.3239 7.86983,4.08768 8.77089,6.48169 0.7017,1.86436 0.496,5.26727 -0.38619,6.38881 l -0.78265,0.99497 -20.91134,-0.10261 -20.91133,-0.1026 -0.94934,-0.94957 c -0.71636,-0.71649 -1.0956,-1.72662 -1.54531,-4.11594 -1.07762,-5.72547 -3.16311,-8.21779 -6.87639,-8.21779 -3.661884,0 -5.966603,2.80609 -6.729563,8.19356 -0.363961,2.57003 -1.179492,4.04222 -2.660952,4.80359 -0.681088,0.35002 -5.869228,0.46352 -21.376952,0.4677 l -20.477583,0.006 z"
         style="fill:none;fill-opacity:1;stroke:none;stroke-width:0.26458332;stroke-opacity:1;paint-order:stroke fill markers" />
    </clipPath>
    <clipPath
       id="clipPath6450-8-8-2"
       clipPathUnits="userSpaceOnUse">
      <path
         sodipodi:nodetypes="ccscssssscsssscscccscscccccccccsscccc"
         inkscape:connector-curvature="0"
         id="path6452-5-17-7"
         d="m 48.636481,277.45746 c -0.829339,-1.26574 -1.086411,-4.22791 -0.516726,-5.95406 1.006094,-3.0485 3.326778,-4.78123 9.732412,-7.26668 14.934573,-5.79476 23.9195,-16.09016 23.057763,-26.42081 -0.120166,-1.44058 -0.640408,-4.47142 -1.156092,-6.73519 -1.607788,-7.05795 -2.195962,-13.8591 -2.184257,-25.25697 0.01212,-11.80055 0.70788,-20.82003 2.350839,-30.47478 1.609937,-9.46069 2.009677,-14.83958 1.762035,-23.70997 -0.23318,-8.35249 -0.56329,-10.53509 -2.619034,-17.31636 -2.921214,-9.63617 -3.7983,-15.81157 -3.79508,-26.72043 0.0026,-8.931732 0.536784,-12.968954 2.15351,-16.276719 1.001186,-2.048394 2.25584,-2.730042 6.848549,-3.720777 9.737347,-2.100527 19.68742,-2.374218 28.77293,-0.791438 7.69038,1.339736 9.59272,2.112058 10.66665,4.330494 1.66717,3.443909 2.03842,6.477124 2.03735,16.64552 -0.001,12.02971 -0.68493,16.94558 -3.72069,26.75345 -2.28702,7.38884 -2.60128,9.81575 -2.59226,20.01872 0.008,9.39781 0.39522,13.62608 2.0372,22.26355 1.41738,7.45593 2.0181,16.11209 2.01248,28.99874 -0.006,13.18161 -0.42114,18.00156 -2.24069,25.99994 -1.03299,4.5408 -1.23818,9.1598 -0.52462,11.80974 0.21776,0.80869 0.51545,1.64072 0.88244,2.4806 1.57087,3.59506 4.41134,7.33383 7.68645,10.00022 4.41511,3.59448 10.51367,7.07458 14.81241,8.45257 4.12996,1.3239 7.86983,4.08768 8.77089,6.48169 0.7017,1.86436 0.496,5.26727 -0.38619,6.38881 l -0.78265,0.99497 -20.91134,-0.10261 -20.91133,-0.1026 -0.94934,-0.94957 c -0.71636,-0.71649 -1.0956,-1.72662 -1.54531,-4.11594 -1.07762,-5.72547 -3.16311,-8.21779 -6.87639,-8.21779 -3.661884,0 -5.966603,2.80609 -6.729563,8.19356 -0.363961,2.57003 -1.179492,4.04222 -2.660952,4.80359 -0.681088,0.35002 -5.869228,0.46352 -21.376952,0.4677 l -20.477583,0.006 z"
         style="fill:none;fill-opacity:1;stroke:none;stroke-width:0.26458332;stroke-opacity:1;paint-order:stroke fill markers" />
    </clipPath>
    <clipPath
       id="clipPath6964"
       clipPathUnits="userSpaceOnUse">
      <path
         inkscape:label="rect6772-9-8"
         sodipodi:nodetypes="ccccccc"
         transform="matrix(3.7795276,0,0,3.7795276,124.22152,-202.18731)"
         inkscape:connector-curvature="0"
         id="path6966"
         clip-path="url(#clipPath6450-8-8-2)"
         d="M 48.269531,72.361328 C 19.522293,142.53184 39.544411,213.2057 48.136719,286.14844 c 37.957416,0.40838 76.199391,0.13281 114.255861,0.13281 l 0.13281,-0.13281 V 72.494141 l -0.13281,-0.132813 z"
         style="color:#000000;font-style:normal;font-variant:normal;font-weight:normal;font-stretch:normal;font-size:medium;line-height:normal;font-family:sans-serif;font-variant-ligatures:normal;font-variant-position:normal;font-variant-caps:normal;font-variant-numeric:normal;font-variant-alternates:normal;font-feature-settings:normal;text-indent:0;text-align:start;text-decoration:none;text-decoration-line:none;text-decoration-style:solid;text-decoration-color:#000000;letter-spacing:normal;word-spacing:normal;text-transform:none;writing-mode:lr-tb;direction:ltr;text-orientation:mixed;dominant-baseline:auto;baseline-shift:baseline;text-anchor:start;white-space:normal;shape-padding:0;clip-rule:nonzero;display:inline;overflow:visible;visibility:visible;opacity:0.63200001;isolation:auto;mix-blend-mode:normal;color-interpolation:sRGB;color-interpolation-filters:linearRGB;solid-color:#000000;solid-opacity:1;vector-effect:none;fill:#0000ff;fill-opacity:1;fill-rule:nonzero;stroke:none;stroke-width:0.26499999;stroke-linecap:butt;stroke-linejoin:miter;stroke-miterlimit:0;stroke-dasharray:none;stroke-dashoffset:0;stroke-opacity:1;paint-order:stroke fill markers;color-rendering:auto;image-rendering:auto;shape-rendering:auto;text-rendering:auto;enable-background:accumulate" />
    </clipPath>
    <clipPath
       id="clipPath6968"
       clipPathUnits="userSpaceOnUse">
      <path
         transform="matrix(0.26458333,0,0,0.26458333,-32.866944,53.495392)"
         clip-path="url(#clipPath6964)"
         inkscape:connector-curvature="0"
         id="path6970"
         d="m 408.54492,189.4707 c -34.24999,46.25001 17,122.20899 17,122.20899 l 32,-26.8711 v -74.59765 z"
         style="display:inline;fill:#ff0000;fill-opacity:1;stroke:none;stroke-width:0.99999994px;stroke-linecap:butt;stroke-linejoin:miter;stroke-opacity:1" />
    </clipPath>
    <clipPath
       id="clipPath6968-2"
       clipPathUnits="userSpaceOnUse">
      <path
         transform="matrix(0.26458333,0,0,0.26458333,-32.866944,53.495392)"
         clip-path="url(#clipPath6964)"
         inkscape:connector-curvature="0"
         id="path6970-8"
         d="m 408.54492,189.4707 c -34.24999,46.25001 17,122.20899 17,122.20899 l 32,-26.8711 v -74.59765 z"
         style="display:inline;fill:#ff0000;fill-opacity:1;stroke:none;stroke-width:0.99999994px;stroke-linecap:butt;stroke-linejoin:miter;stroke-opacity:1" />
    </clipPath>
    <clipPath
       id="clipPath6968-2-4"
       clipPathUnits="userSpaceOnUse">
      <path
         transform="matrix(0.26458333,0,0,0.26458333,-32.866944,53.495392)"
         clip-path="url(#clipPath6964)"
         inkscape:connector-curvature="0"
         id="path6970-8-7"
         d="m 408.54492,189.4707 c -34.24999,46.25001 17,122.20899 17,122.20899 l 32,-26.8711 v -74.59765 z"
         style="display:inline;fill:#ff0000;fill-opacity:1;stroke:none;stroke-width:0.99999994px;stroke-linecap:butt;stroke-linejoin:miter;stroke-opacity:1" />
    </clipPath>
    <clipPath
       id="clipPath6968-8"
       clipPathUnits="userSpaceOnUse">
      <path
         transform="matrix(0.26458333,0,0,0.26458333,-32.866944,53.495392)"
         clip-path="url(#clipPath6964)"
         inkscape:connector-curvature="0"
         id="path6970-7"
         d="m 408.54492,189.4707 c -34.24999,46.25001 17,122.20899 17,122.20899 l 32,-26.8711 v -74.59765 z"
         style="display:inline;fill:#ff0000;fill-opacity:1;stroke:none;stroke-width:0.99999994px;stroke-linecap:butt;stroke-linejoin:miter;stroke-opacity:1" />
    </clipPath>
    <clipPath
       id="clipPath6968-8-5"
       clipPathUnits="userSpaceOnUse">
      <path
         transform="matrix(0.26458333,0,0,0.26458333,-32.866944,53.495392)"
         clip-path="url(#clipPath6964)"
         inkscape:connector-curvature="0"
         id="path6970-7-1"
         d="m 408.54492,189.4707 c -34.24999,46.25001 17,122.20899 17,122.20899 l 32,-26.8711 v -74.59765 z"
         style="display:inline;fill:#ff0000;fill-opacity:1;stroke:none;stroke-width:0.99999994px;stroke-linecap:butt;stroke-linejoin:miter;stroke-opacity:1" />
    </clipPath>
    <clipPath
       id="clipPath6968-8-9"
       clipPathUnits="userSpaceOnUse">
      <path
         transform="matrix(0.26458333,0,0,0.26458333,-32.866944,53.495392)"
         clip-path="url(#clipPath6964)"
         inkscape:connector-curvature="0"
         id="path6970-7-12"
         d="m 408.54492,189.4707 c -34.24999,46.25001 17,122.20899 17,122.20899 l 32,-26.8711 v -74.59765 z"
         style="display:inline;fill:#ff0000;fill-opacity:1;stroke:none;stroke-width:0.99999994px;stroke-linecap:butt;stroke-linejoin:miter;stroke-opacity:1" />
    </clipPath>
    <clipPath
       id="clipPath6968-8-9-0"
       clipPathUnits="userSpaceOnUse">
      <path
         transform="matrix(0.26458333,0,0,0.26458333,-32.866944,53.495392)"
         clip-path="url(#clipPath6964)"
         inkscape:connector-curvature="0"
         id="path6970-7-12-8"
         d="m 408.54492,189.4707 c -34.24999,46.25001 17,122.20899 17,122.20899 l 32,-26.8711 v -74.59765 z"
         style="display:inline;fill:#ff0000;fill-opacity:1;stroke:none;stroke-width:0.99999994px;stroke-linecap:butt;stroke-linejoin:miter;stroke-opacity:1" />
    </clipPath>
    <clipPath
       id="clipPath6450-0"
       clipPathUnits="userSpaceOnUse">
      <path
         sodipodi:nodetypes="ccscssssscsssscscccscscccccccccsscccc"
         inkscape:connector-curvature="0"
         id="path6452-0"
         d="m 48.636481,277.45746 c -0.829339,-1.26574 -1.086411,-4.22791 -0.516726,-5.95406 1.006094,-3.0485 3.326778,-4.78123 9.732412,-7.26668 14.934573,-5.79476 23.9195,-16.09016 23.057763,-26.42081 -0.120166,-1.44058 -0.640408,-4.47142 -1.156092,-6.73519 -1.607788,-7.05795 -2.195962,-13.8591 -2.184257,-25.25697 0.01212,-11.80055 0.70788,-20.82003 2.350839,-30.47478 1.609937,-9.46069 2.009677,-14.83958 1.762035,-23.70997 -0.23318,-8.35249 -0.56329,-10.53509 -2.619034,-17.31636 -2.921214,-9.63617 -3.7983,-15.81157 -3.79508,-26.72043 0.0026,-8.931732 0.536784,-12.968954 2.15351,-16.276719 1.001186,-2.048394 2.25584,-2.730042 6.848549,-3.720777 9.737347,-2.100527 19.68742,-2.374218 28.77293,-0.791438 7.69038,1.339736 9.59272,2.112058 10.66665,4.330494 1.66717,3.443909 2.03842,6.477124 2.03735,16.64552 -0.001,12.02971 -0.68493,16.94558 -3.72069,26.75345 -2.28702,7.38884 -2.60128,9.81575 -2.59226,20.01872 0.008,9.39781 0.39522,13.62608 2.0372,22.26355 1.41738,7.45593 2.0181,16.11209 2.01248,28.99874 -0.006,13.18161 -0.42114,18.00156 -2.24069,25.99994 -1.03299,4.5408 -1.23818,9.1598 -0.52462,11.80974 0.21776,0.80869 0.51545,1.64072 0.88244,2.4806 1.57087,3.59506 4.41134,7.33383 7.68645,10.00022 4.41511,3.59448 10.51367,7.07458 14.81241,8.45257 4.12996,1.3239 7.86983,4.08768 8.77089,6.48169 0.7017,1.86436 0.496,5.26727 -0.38619,6.38881 l -0.78265,0.99497 -20.91134,-0.10261 -20.91133,-0.1026 -0.94934,-0.94957 c -0.71636,-0.71649 -1.0956,-1.72662 -1.54531,-4.11594 -1.07762,-5.72547 -3.16311,-8.21779 -6.87639,-8.21779 -3.661884,0 -5.966603,2.80609 -6.729563,8.19356 -0.363961,2.57003 -1.179492,4.04222 -2.660952,4.80359 -0.681088,0.35002 -5.869228,0.46352 -21.376952,0.4677 l -20.477583,0.006 z"
         style="fill:none;fill-opacity:1;stroke:none;stroke-width:0.26458332;stroke-opacity:1;paint-order:stroke fill markers" />
    </clipPath>
    <clipPath
       id="clipPath7624"
       clipPathUnits="userSpaceOnUse">
      <rect
         style="display:inline;opacity:1;fill:#4d4d4d;fill-opacity:1;stroke:none;stroke-width:0.26499999;stroke-miterlimit:0;stroke-dasharray:none;stroke-opacity:1;paint-order:stroke fill markers"
         id="rect7626"
         width="114.12409"
         height="213.65526"
         x="48.268875"
         y="72.493599"
         clip-path="url(#clipPath6450)"
         transform="translate(-75.227106,17.822748)"
         inkscape:label="Handle" />
    </clipPath>
    <clipPath
       id="clipPath8139"
       clipPathUnits="userSpaceOnUse">
      <path
         transform="translate(4.375e-6,-2.0712917e-5)"
         sodipodi:nodetypes="ccccc"
         clip-path="url(#clipPath7624)"
         mask="none"
         inkscape:connector-curvature="0"
         id="path8141"
         d="m -1.3149346,87.323015 c 54.0344116,1.322916 -2.3416421,1.322916 54.0344116,1.322916 L 48.221557,277.60683 1.3308988,276.28392 Z"
         style="display:inline;opacity:1;fill:#4d4d4d;fill-opacity:1;fill-rule:nonzero;stroke:#00ff00;stroke-width:0.26499999;stroke-linejoin:miter;stroke-miterlimit:4;stroke-dasharray:none;stroke-opacity:0;paint-order:stroke fill markers" />
    </clipPath>
    <radialGradient
       gradientUnits="userSpaceOnUse"
       r="29.299776"
       fy="275.67209"
       fx="86.832939"
       cy="275.67209"
       cx="86.832939"
       id="radialGradient8275"
       xlink:href="#linearGradient8281"
       inkscape:collect="always" />
    <clipPath
       id="clipPath6450-3"
       clipPathUnits="userSpaceOnUse">
      <path
         sodipodi:nodetypes="ccscssssscsssscscccscscccccccccsscccc"
         inkscape:connector-curvature="0"
         id="path6452-3"
         d="m 48.636481,277.45746 c -0.829339,-1.26574 -1.086411,-4.22791 -0.516726,-5.95406 1.006094,-3.0485 3.326778,-4.78123 9.732412,-7.26668 14.934573,-5.79476 23.9195,-16.09016 23.057763,-26.42081 -0.120166,-1.44058 -0.640408,-4.47142 -1.156092,-6.73519 -1.607788,-7.05795 -2.195962,-13.8591 -2.184257,-25.25697 0.01212,-11.80055 0.70788,-20.82003 2.350839,-30.47478 1.609937,-9.46069 2.009677,-14.83958 1.762035,-23.70997 -0.23318,-8.35249 -0.56329,-10.53509 -2.619034,-17.31636 -2.921214,-9.63617 -3.7983,-15.81157 -3.79508,-26.72043 0.0026,-8.931732 0.536784,-12.968954 2.15351,-16.276719 1.001186,-2.048394 2.25584,-2.730042 6.848549,-3.720777 9.737347,-2.100527 19.68742,-2.374218 28.77293,-0.791438 7.69038,1.339736 9.59272,2.112058 10.66665,4.330494 1.66717,3.443909 2.03842,6.477124 2.03735,16.64552 -0.001,12.02971 -0.68493,16.94558 -3.72069,26.75345 -2.28702,7.38884 -2.60128,9.81575 -2.59226,20.01872 0.008,9.39781 0.39522,13.62608 2.0372,22.26355 1.41738,7.45593 2.0181,16.11209 2.01248,28.99874 -0.006,13.18161 -0.42114,18.00156 -2.24069,25.99994 -1.03299,4.5408 -1.23818,9.1598 -0.52462,11.80974 0.21776,0.80869 0.51545,1.64072 0.88244,2.4806 1.57087,3.59506 4.41134,7.33383 7.68645,10.00022 4.41511,3.59448 10.51367,7.07458 14.81241,8.45257 4.12996,1.3239 7.86983,4.08768 8.77089,6.48169 0.7017,1.86436 0.496,5.26727 -0.38619,6.38881 l -0.78265,0.99497 -20.91134,-0.10261 -20.91133,-0.1026 -0.94934,-0.94957 c -0.71636,-0.71649 -1.0956,-1.72662 -1.54531,-4.11594 -1.07762,-5.72547 -3.16311,-8.21779 -6.87639,-8.21779 -3.661884,0 -5.966603,2.80609 -6.729563,8.19356 -0.363961,2.57003 -1.179492,4.04222 -2.660952,4.80359 -0.681088,0.35002 -5.869228,0.46352 -21.376952,0.4677 l -20.477583,0.006 z"
         style="fill:none;fill-opacity:1;stroke:none;stroke-width:0.26458332;stroke-opacity:1;paint-order:stroke fill markers" />
    </clipPath>
    <clipPath
       id="clipPath6450-4-2"
       clipPathUnits="userSpaceOnUse">
      <path
         sodipodi:nodetypes="ccscssssscsssscscccscscccccccccsscccc"
         inkscape:connector-curvature="0"
         id="path6452-6-6"
         d="m 48.636481,277.45746 c -0.829339,-1.26574 -1.086411,-4.22791 -0.516726,-5.95406 1.006094,-3.0485 3.326778,-4.78123 9.732412,-7.26668 14.934573,-5.79476 23.9195,-16.09016 23.057763,-26.42081 -0.120166,-1.44058 -0.640408,-4.47142 -1.156092,-6.73519 -1.607788,-7.05795 -2.195962,-13.8591 -2.184257,-25.25697 0.01212,-11.80055 0.70788,-20.82003 2.350839,-30.47478 1.609937,-9.46069 2.009677,-14.83958 1.762035,-23.70997 -0.23318,-8.35249 -0.56329,-10.53509 -2.619034,-17.31636 -2.921214,-9.63617 -3.7983,-15.81157 -3.79508,-26.72043 0.0026,-8.931732 0.536784,-12.968954 2.15351,-16.276719 1.001186,-2.048394 2.25584,-2.730042 6.848549,-3.720777 9.737347,-2.100527 19.68742,-2.374218 28.77293,-0.791438 7.69038,1.339736 9.59272,2.112058 10.66665,4.330494 1.66717,3.443909 2.03842,6.477124 2.03735,16.64552 -0.001,12.02971 -0.68493,16.94558 -3.72069,26.75345 -2.28702,7.38884 -2.60128,9.81575 -2.59226,20.01872 0.008,9.39781 0.39522,13.62608 2.0372,22.26355 1.41738,7.45593 2.0181,16.11209 2.01248,28.99874 -0.006,13.18161 -0.42114,18.00156 -2.24069,25.99994 -1.03299,4.5408 -1.23818,9.1598 -0.52462,11.80974 0.21776,0.80869 0.51545,1.64072 0.88244,2.4806 1.57087,3.59506 4.41134,7.33383 7.68645,10.00022 4.41511,3.59448 10.51367,7.07458 14.81241,8.45257 4.12996,1.3239 7.86983,4.08768 8.77089,6.48169 0.7017,1.86436 0.496,5.26727 -0.38619,6.38881 l -0.78265,0.99497 -20.91134,-0.10261 -20.91133,-0.1026 -0.94934,-0.94957 c -0.71636,-0.71649 -1.0956,-1.72662 -1.54531,-4.11594 -1.07762,-5.72547 -3.16311,-8.21779 -6.87639,-8.21779 -3.661884,0 -5.966603,2.80609 -6.729563,8.19356 -0.363961,2.57003 -1.179492,4.04222 -2.660952,4.80359 -0.681088,0.35002 -5.869228,0.46352 -21.376952,0.4677 l -20.477583,0.006 z"
         style="fill:none;fill-opacity:1;stroke:none;stroke-width:0.26458332;stroke-opacity:1;paint-order:stroke fill markers" />
    </clipPath>
    <clipPath
       id="clipPath6450-8-2"
       clipPathUnits="userSpaceOnUse">
      <path
         sodipodi:nodetypes="ccscssssscsssscscccscscccccccccsscccc"
         inkscape:connector-curvature="0"
         id="path6452-5-0"
         d="m 48.636481,277.45746 c -0.829339,-1.26574 -1.086411,-4.22791 -0.516726,-5.95406 1.006094,-3.0485 3.326778,-4.78123 9.732412,-7.26668 14.934573,-5.79476 23.9195,-16.09016 23.057763,-26.42081 -0.120166,-1.44058 -0.640408,-4.47142 -1.156092,-6.73519 -1.607788,-7.05795 -2.195962,-13.8591 -2.184257,-25.25697 0.01212,-11.80055 0.70788,-20.82003 2.350839,-30.47478 1.609937,-9.46069 2.009677,-14.83958 1.762035,-23.70997 -0.23318,-8.35249 -0.56329,-10.53509 -2.619034,-17.31636 -2.921214,-9.63617 -3.7983,-15.81157 -3.79508,-26.72043 0.0026,-8.931732 0.536784,-12.968954 2.15351,-16.276719 1.001186,-2.048394 2.25584,-2.730042 6.848549,-3.720777 9.737347,-2.100527 19.68742,-2.374218 28.77293,-0.791438 7.69038,1.339736 9.59272,2.112058 10.66665,4.330494 1.66717,3.443909 2.03842,6.477124 2.03735,16.64552 -0.001,12.02971 -0.68493,16.94558 -3.72069,26.75345 -2.28702,7.38884 -2.60128,9.81575 -2.59226,20.01872 0.008,9.39781 0.39522,13.62608 2.0372,22.26355 1.41738,7.45593 2.0181,16.11209 2.01248,28.99874 -0.006,13.18161 -0.42114,18.00156 -2.24069,25.99994 -1.03299,4.5408 -1.23818,9.1598 -0.52462,11.80974 0.21776,0.80869 0.51545,1.64072 0.88244,2.4806 1.57087,3.59506 4.41134,7.33383 7.68645,10.00022 4.41511,3.59448 10.51367,7.07458 14.81241,8.45257 4.12996,1.3239 7.86983,4.08768 8.77089,6.48169 0.7017,1.86436 0.496,5.26727 -0.38619,6.38881 l -0.78265,0.99497 -20.91134,-0.10261 -20.91133,-0.1026 -0.94934,-0.94957 c -0.71636,-0.71649 -1.0956,-1.72662 -1.54531,-4.11594 -1.07762,-5.72547 -3.16311,-8.21779 -6.87639,-8.21779 -3.661884,0 -5.966603,2.80609 -6.729563,8.19356 -0.363961,2.57003 -1.179492,4.04222 -2.660952,4.80359 -0.681088,0.35002 -5.869228,0.46352 -21.376952,0.4677 l -20.477583,0.006 z"
         style="fill:none;fill-opacity:1;stroke:none;stroke-width:0.26458332;stroke-opacity:1;paint-order:stroke fill markers" />
    </clipPath>
    <clipPath
       id="clipPath6450-8-6-8"
       clipPathUnits="userSpaceOnUse">
      <path
         sodipodi:nodetypes="ccscssssscsssscscccscscccccccccsscccc"
         inkscape:connector-curvature="0"
         id="path6452-5-1-6"
         d="m 48.636481,277.45746 c -0.829339,-1.26574 -1.086411,-4.22791 -0.516726,-5.95406 1.006094,-3.0485 3.326778,-4.78123 9.732412,-7.26668 14.934573,-5.79476 23.9195,-16.09016 23.057763,-26.42081 -0.120166,-1.44058 -0.640408,-4.47142 -1.156092,-6.73519 -1.607788,-7.05795 -2.195962,-13.8591 -2.184257,-25.25697 0.01212,-11.80055 0.70788,-20.82003 2.350839,-30.47478 1.609937,-9.46069 2.009677,-14.83958 1.762035,-23.70997 -0.23318,-8.35249 -0.56329,-10.53509 -2.619034,-17.31636 -2.921214,-9.63617 -3.7983,-15.81157 -3.79508,-26.72043 0.0026,-8.931732 0.536784,-12.968954 2.15351,-16.276719 1.001186,-2.048394 2.25584,-2.730042 6.848549,-3.720777 9.737347,-2.100527 19.68742,-2.374218 28.77293,-0.791438 7.69038,1.339736 9.59272,2.112058 10.66665,4.330494 1.66717,3.443909 2.03842,6.477124 2.03735,16.64552 -0.001,12.02971 -0.68493,16.94558 -3.72069,26.75345 -2.28702,7.38884 -2.60128,9.81575 -2.59226,20.01872 0.008,9.39781 0.39522,13.62608 2.0372,22.26355 1.41738,7.45593 2.0181,16.11209 2.01248,28.99874 -0.006,13.18161 -0.42114,18.00156 -2.24069,25.99994 -1.03299,4.5408 -1.23818,9.1598 -0.52462,11.80974 0.21776,0.80869 0.51545,1.64072 0.88244,2.4806 1.57087,3.59506 4.41134,7.33383 7.68645,10.00022 4.41511,3.59448 10.51367,7.07458 14.81241,8.45257 4.12996,1.3239 7.86983,4.08768 8.77089,6.48169 0.7017,1.86436 0.496,5.26727 -0.38619,6.38881 l -0.78265,0.99497 -20.91134,-0.10261 -20.91133,-0.1026 -0.94934,-0.94957 c -0.71636,-0.71649 -1.0956,-1.72662 -1.54531,-4.11594 -1.07762,-5.72547 -3.16311,-8.21779 -6.87639,-8.21779 -3.661884,0 -5.966603,2.80609 -6.729563,8.19356 -0.363961,2.57003 -1.179492,4.04222 -2.660952,4.80359 -0.681088,0.35002 -5.869228,0.46352 -21.376952,0.4677 l -20.477583,0.006 z"
         style="fill:none;fill-opacity:1;stroke:none;stroke-width:0.26458332;stroke-opacity:1;paint-order:stroke fill markers" />
    </clipPath>
    <clipPath
       id="clipPath6450-8-8-1"
       clipPathUnits="userSpaceOnUse">
      <path
         sodipodi:nodetypes="ccscssssscsssscscccscscccccccccsscccc"
         inkscape:connector-curvature="0"
         id="path6452-5-17-70"
         d="m 48.636481,277.45746 c -0.829339,-1.26574 -1.086411,-4.22791 -0.516726,-5.95406 1.006094,-3.0485 3.326778,-4.78123 9.732412,-7.26668 14.934573,-5.79476 23.9195,-16.09016 23.057763,-26.42081 -0.120166,-1.44058 -0.640408,-4.47142 -1.156092,-6.73519 -1.607788,-7.05795 -2.195962,-13.8591 -2.184257,-25.25697 0.01212,-11.80055 0.70788,-20.82003 2.350839,-30.47478 1.609937,-9.46069 2.009677,-14.83958 1.762035,-23.70997 -0.23318,-8.35249 -0.56329,-10.53509 -2.619034,-17.31636 -2.921214,-9.63617 -3.7983,-15.81157 -3.79508,-26.72043 0.0026,-8.931732 0.536784,-12.968954 2.15351,-16.276719 1.001186,-2.048394 2.25584,-2.730042 6.848549,-3.720777 9.737347,-2.100527 19.68742,-2.374218 28.77293,-0.791438 7.69038,1.339736 9.59272,2.112058 10.66665,4.330494 1.66717,3.443909 2.03842,6.477124 2.03735,16.64552 -0.001,12.02971 -0.68493,16.94558 -3.72069,26.75345 -2.28702,7.38884 -2.60128,9.81575 -2.59226,20.01872 0.008,9.39781 0.39522,13.62608 2.0372,22.26355 1.41738,7.45593 2.0181,16.11209 2.01248,28.99874 -0.006,13.18161 -0.42114,18.00156 -2.24069,25.99994 -1.03299,4.5408 -1.23818,9.1598 -0.52462,11.80974 0.21776,0.80869 0.51545,1.64072 0.88244,2.4806 1.57087,3.59506 4.41134,7.33383 7.68645,10.00022 4.41511,3.59448 10.51367,7.07458 14.81241,8.45257 4.12996,1.3239 7.86983,4.08768 8.77089,6.48169 0.7017,1.86436 0.496,5.26727 -0.38619,6.38881 l -0.78265,0.99497 -20.91134,-0.10261 -20.91133,-0.1026 -0.94934,-0.94957 c -0.71636,-0.71649 -1.0956,-1.72662 -1.54531,-4.11594 -1.07762,-5.72547 -3.16311,-8.21779 -6.87639,-8.21779 -3.661884,0 -5.966603,2.80609 -6.729563,8.19356 -0.363961,2.57003 -1.179492,4.04222 -2.660952,4.80359 -0.681088,0.35002 -5.869228,0.46352 -21.376952,0.4677 l -20.477583,0.006 z"
         style="fill:none;fill-opacity:1;stroke:none;stroke-width:0.26458332;stroke-opacity:1;paint-order:stroke fill markers" />
    </clipPath>
    <clipPath
       id="clipPath6450-8-8-2-0"
       clipPathUnits="userSpaceOnUse">
      <path
         sodipodi:nodetypes="ccscssssscsssscscccscscccccccccsscccc"
         inkscape:connector-curvature="0"
         id="path6452-5-17-7-6"
         d="m 48.636481,277.45746 c -0.829339,-1.26574 -1.086411,-4.22791 -0.516726,-5.95406 1.006094,-3.0485 3.326778,-4.78123 9.732412,-7.26668 14.934573,-5.79476 23.9195,-16.09016 23.057763,-26.42081 -0.120166,-1.44058 -0.640408,-4.47142 -1.156092,-6.73519 -1.607788,-7.05795 -2.195962,-13.8591 -2.184257,-25.25697 0.01212,-11.80055 0.70788,-20.82003 2.350839,-30.47478 1.609937,-9.46069 2.009677,-14.83958 1.762035,-23.70997 -0.23318,-8.35249 -0.56329,-10.53509 -2.619034,-17.31636 -2.921214,-9.63617 -3.7983,-15.81157 -3.79508,-26.72043 0.0026,-8.931732 0.536784,-12.968954 2.15351,-16.276719 1.001186,-2.048394 2.25584,-2.730042 6.848549,-3.720777 9.737347,-2.100527 19.68742,-2.374218 28.77293,-0.791438 7.69038,1.339736 9.59272,2.112058 10.66665,4.330494 1.66717,3.443909 2.03842,6.477124 2.03735,16.64552 -0.001,12.02971 -0.68493,16.94558 -3.72069,26.75345 -2.28702,7.38884 -2.60128,9.81575 -2.59226,20.01872 0.008,9.39781 0.39522,13.62608 2.0372,22.26355 1.41738,7.45593 2.0181,16.11209 2.01248,28.99874 -0.006,13.18161 -0.42114,18.00156 -2.24069,25.99994 -1.03299,4.5408 -1.23818,9.1598 -0.52462,11.80974 0.21776,0.80869 0.51545,1.64072 0.88244,2.4806 1.57087,3.59506 4.41134,7.33383 7.68645,10.00022 4.41511,3.59448 10.51367,7.07458 14.81241,8.45257 4.12996,1.3239 7.86983,4.08768 8.77089,6.48169 0.7017,1.86436 0.496,5.26727 -0.38619,6.38881 l -0.78265,0.99497 -20.91134,-0.10261 -20.91133,-0.1026 -0.94934,-0.94957 c -0.71636,-0.71649 -1.0956,-1.72662 -1.54531,-4.11594 -1.07762,-5.72547 -3.16311,-8.21779 -6.87639,-8.21779 -3.661884,0 -5.966603,2.80609 -6.729563,8.19356 -0.363961,2.57003 -1.179492,4.04222 -2.660952,4.80359 -0.681088,0.35002 -5.869228,0.46352 -21.376952,0.4677 l -20.477583,0.006 z"
         style="fill:none;fill-opacity:1;stroke:none;stroke-width:0.26458332;stroke-opacity:1;paint-order:stroke fill markers" />
    </clipPath>
    <clipPath
       id="clipPath6964-9"
       clipPathUnits="userSpaceOnUse">
      <path
         inkscape:label="rect6772-9-8"
         sodipodi:nodetypes="ccccccc"
         transform="matrix(3.7795276,0,0,3.7795276,124.22152,-202.18731)"
         inkscape:connector-curvature="0"
         id="path6966-6"
         clip-path="url(#clipPath6450-8-8-2-0)"
         d="M 48.269531,72.361328 C 19.522293,142.53184 39.544411,213.2057 48.136719,286.14844 c 37.957416,0.40838 76.199391,0.13281 114.255861,0.13281 l 0.13281,-0.13281 V 72.494141 l -0.13281,-0.132813 z"
         style="color:#000000;font-style:normal;font-variant:normal;font-weight:normal;font-stretch:normal;font-size:medium;line-height:normal;font-family:sans-serif;font-variant-ligatures:normal;font-variant-position:normal;font-variant-caps:normal;font-variant-numeric:normal;font-variant-alternates:normal;font-feature-settings:normal;text-indent:0;text-align:start;text-decoration:none;text-decoration-line:none;text-decoration-style:solid;text-decoration-color:#000000;letter-spacing:normal;word-spacing:normal;text-transform:none;writing-mode:lr-tb;direction:ltr;text-orientation:mixed;dominant-baseline:auto;baseline-shift:baseline;text-anchor:start;white-space:normal;shape-padding:0;clip-rule:nonzero;display:inline;overflow:visible;visibility:visible;opacity:0.63200001;isolation:auto;mix-blend-mode:normal;color-interpolation:sRGB;color-interpolation-filters:linearRGB;solid-color:#000000;solid-opacity:1;vector-effect:none;fill:#0000ff;fill-opacity:1;fill-rule:nonzero;stroke:none;stroke-width:0.26499999;stroke-linecap:butt;stroke-linejoin:miter;stroke-miterlimit:0;stroke-dasharray:none;stroke-dashoffset:0;stroke-opacity:1;paint-order:stroke fill markers;color-rendering:auto;image-rendering:auto;shape-rendering:auto;text-rendering:auto;enable-background:accumulate" />
    </clipPath>
    <clipPath
       id="clipPath6968-0"
       clipPathUnits="userSpaceOnUse">
      <path
         transform="matrix(0.26458333,0,0,0.26458333,-32.866944,53.495392)"
         clip-path="url(#clipPath6964-9)"
         inkscape:connector-curvature="0"
         id="path6970-87"
         d="m 408.54492,189.4707 c -34.24999,46.25001 17,122.20899 17,122.20899 l 32,-26.8711 v -74.59765 z"
         style="display:inline;fill:#ff0000;fill-opacity:1;stroke:none;stroke-width:0.99999994px;stroke-linecap:butt;stroke-linejoin:miter;stroke-opacity:1" />
    </clipPath>
    <clipPath
       id="clipPath6968-2-5"
       clipPathUnits="userSpaceOnUse">
      <path
         transform="matrix(0.26458333,0,0,0.26458333,-32.866944,53.495392)"
         clip-path="url(#clipPath6964-9)"
         inkscape:connector-curvature="0"
         id="path6970-8-4"
         d="m 408.54492,189.4707 c -34.24999,46.25001 17,122.20899 17,122.20899 l 32,-26.8711 v -74.59765 z"
         style="display:inline;fill:#ff0000;fill-opacity:1;stroke:none;stroke-width:0.99999994px;stroke-linecap:butt;stroke-linejoin:miter;stroke-opacity:1" />
    </clipPath>
    <clipPath
       id="clipPath6968-2-4-7"
       clipPathUnits="userSpaceOnUse">
      <path
         transform="matrix(0.26458333,0,0,0.26458333,-32.866944,53.495392)"
         clip-path="url(#clipPath6964-9)"
         inkscape:connector-curvature="0"
         id="path6970-8-7-8"
         d="m 408.54492,189.4707 c -34.24999,46.25001 17,122.20899 17,122.20899 l 32,-26.8711 v -74.59765 z"
         style="display:inline;fill:#ff0000;fill-opacity:1;stroke:none;stroke-width:0.99999994px;stroke-linecap:butt;stroke-linejoin:miter;stroke-opacity:1" />
    </clipPath>
    <clipPath
       id="clipPath6968-8-2"
       clipPathUnits="userSpaceOnUse">
      <path
         transform="matrix(0.26458333,0,0,0.26458333,-32.866944,53.495392)"
         clip-path="url(#clipPath6964-9)"
         inkscape:connector-curvature="0"
         id="path6970-7-6"
         d="m 408.54492,189.4707 c -34.24999,46.25001 17,122.20899 17,122.20899 l 32,-26.8711 v -74.59765 z"
         style="display:inline;fill:#ff0000;fill-opacity:1;stroke:none;stroke-width:0.99999994px;stroke-linecap:butt;stroke-linejoin:miter;stroke-opacity:1" />
    </clipPath>
    <clipPath
       id="clipPath6968-8-5-1"
       clipPathUnits="userSpaceOnUse">
      <path
         transform="matrix(0.26458333,0,0,0.26458333,-32.866944,53.495392)"
         clip-path="url(#clipPath6964-9)"
         inkscape:connector-curvature="0"
         id="path6970-7-1-6"
         d="m 408.54492,189.4707 c -34.24999,46.25001 17,122.20899 17,122.20899 l 32,-26.8711 v -74.59765 z"
         style="display:inline;fill:#ff0000;fill-opacity:1;stroke:none;stroke-width:0.99999994px;stroke-linecap:butt;stroke-linejoin:miter;stroke-opacity:1" />
    </clipPath>
    <clipPath
       id="clipPath6968-8-9-9"
       clipPathUnits="userSpaceOnUse">
      <path
         transform="matrix(0.26458333,0,0,0.26458333,-32.866944,53.495392)"
         clip-path="url(#clipPath6964-9)"
         inkscape:connector-curvature="0"
         id="path6970-7-12-85"
         d="m 408.54492,189.4707 c -34.24999,46.25001 17,122.20899 17,122.20899 l 32,-26.8711 v -74.59765 z"
         style="display:inline;fill:#ff0000;fill-opacity:1;stroke:none;stroke-width:0.99999994px;stroke-linecap:butt;stroke-linejoin:miter;stroke-opacity:1" />
    </clipPath>
    <clipPath
       id="clipPath6968-8-9-0-6"
       clipPathUnits="userSpaceOnUse">
      <path
         transform="matrix(0.26458333,0,0,0.26458333,-32.866944,53.495392)"
         clip-path="url(#clipPath6964-9)"
         inkscape:connector-curvature="0"
         id="path6970-7-12-8-4"
         d="m 408.54492,189.4707 c -34.24999,46.25001 17,122.20899 17,122.20899 l 32,-26.8711 v -74.59765 z"
         style="display:inline;fill:#ff0000;fill-opacity:1;stroke:none;stroke-width:0.99999994px;stroke-linecap:butt;stroke-linejoin:miter;stroke-opacity:1" />
    </clipPath>
    <clipPath
       id="clipPath6450-0-6"
       clipPathUnits="userSpaceOnUse">
      <path
         sodipodi:nodetypes="ccscssssscsssscscccscscccccccccsscccc"
         inkscape:connector-curvature="0"
         id="path6452-0-7"
         d="m 48.636481,277.45746 c -0.829339,-1.26574 -1.086411,-4.22791 -0.516726,-5.95406 1.006094,-3.0485 3.326778,-4.78123 9.732412,-7.26668 14.934573,-5.79476 23.9195,-16.09016 23.057763,-26.42081 -0.120166,-1.44058 -0.640408,-4.47142 -1.156092,-6.73519 -1.607788,-7.05795 -2.195962,-13.8591 -2.184257,-25.25697 0.01212,-11.80055 0.70788,-20.82003 2.350839,-30.47478 1.609937,-9.46069 2.009677,-14.83958 1.762035,-23.70997 -0.23318,-8.35249 -0.56329,-10.53509 -2.619034,-17.31636 -2.921214,-9.63617 -3.7983,-15.81157 -3.79508,-26.72043 0.0026,-8.931732 0.536784,-12.968954 2.15351,-16.276719 1.001186,-2.048394 2.25584,-2.730042 6.848549,-3.720777 9.737347,-2.100527 19.68742,-2.374218 28.77293,-0.791438 7.69038,1.339736 9.59272,2.112058 10.66665,4.330494 1.66717,3.443909 2.03842,6.477124 2.03735,16.64552 -0.001,12.02971 -0.68493,16.94558 -3.72069,26.75345 -2.28702,7.38884 -2.60128,9.81575 -2.59226,20.01872 0.008,9.39781 0.39522,13.62608 2.0372,22.26355 1.41738,7.45593 2.0181,16.11209 2.01248,28.99874 -0.006,13.18161 -0.42114,18.00156 -2.24069,25.99994 -1.03299,4.5408 -1.23818,9.1598 -0.52462,11.80974 0.21776,0.80869 0.51545,1.64072 0.88244,2.4806 1.57087,3.59506 4.41134,7.33383 7.68645,10.00022 4.41511,3.59448 10.51367,7.07458 14.81241,8.45257 4.12996,1.3239 7.86983,4.08768 8.77089,6.48169 0.7017,1.86436 0.496,5.26727 -0.38619,6.38881 l -0.78265,0.99497 -20.91134,-0.10261 -20.91133,-0.1026 -0.94934,-0.94957 c -0.71636,-0.71649 -1.0956,-1.72662 -1.54531,-4.11594 -1.07762,-5.72547 -3.16311,-8.21779 -6.87639,-8.21779 -3.661884,0 -5.966603,2.80609 -6.729563,8.19356 -0.363961,2.57003 -1.179492,4.04222 -2.660952,4.80359 -0.681088,0.35002 -5.869228,0.46352 -21.376952,0.4677 l -20.477583,0.006 z"
         style="fill:none;fill-opacity:1;stroke:none;stroke-width:0.26458332;stroke-opacity:1;paint-order:stroke fill markers" />
    </clipPath>
    <clipPath
       id="clipPath7624-5"
       clipPathUnits="userSpaceOnUse">
      <rect
         style="display:inline;opacity:1;fill:#4d4d4d;fill-opacity:1;stroke:none;stroke-width:0.26499999;stroke-miterlimit:0;stroke-dasharray:none;stroke-opacity:1;paint-order:stroke fill markers"
         id="rect7626-2"
         width="114.12409"
         height="213.65526"
         x="48.268875"
         y="72.493599"
         clip-path="url(#clipPath6450-3)"
         transform="translate(-75.227106,17.822748)"
         inkscape:label="Handle" />
    </clipPath>
    <clipPath
       id="clipPath8139-9"
       clipPathUnits="userSpaceOnUse">
      <path
         transform="translate(4.375e-6,-2.0712917e-5)"
         sodipodi:nodetypes="ccccc"
         clip-path="url(#clipPath7624-5)"
         mask="none"
         inkscape:connector-curvature="0"
         id="path8141-3"
         d="m -1.3149346,87.323015 c 54.0344116,1.322916 -2.3416421,1.322916 54.0344116,1.322916 L 48.221557,277.60683 1.3308988,276.28392 Z"
         style="display:inline;opacity:1;fill:#4d4d4d;fill-opacity:1;fill-rule:nonzero;stroke:#00ff00;stroke-width:0.26499999;stroke-linejoin:miter;stroke-miterlimit:4;stroke-dasharray:none;stroke-opacity:0;paint-order:stroke fill markers" />
    </clipPath>
    <radialGradient
       gradientUnits="userSpaceOnUse"
       r="29.299776"
       fy="275.67209"
       fx="86.832939"
       cy="275.67209"
       cx="86.832939"
       id="radialGradient8275-4"
       xlink:href="#linearGradient8281"
       inkscape:collect="always" />
  </defs>
  <sodipodi:namedview
     id="base"
     pagecolor="#ffffff"
     bordercolor="#666666"
     borderopacity="1.0"
     inkscape:pageopacity="0.0"
     inkscape:pageshadow="2"
     inkscape:zoom="0.66928105"
     inkscape:cx="566.90205"
     inkscape:cy="190.24281"
     inkscape:document-units="px"
     inkscape:current-layer="g3071"
     showgrid="false"
     inkscape:window-width="1680"
     inkscape:window-height="987"
     inkscape:window-x="-8"
     inkscape:window-y="24"
     inkscape:window-maximized="1"
     showguides="true"
     inkscape:guide-bbox="true" />
  <metadata
     id="metadata1479">
    <rdf:RDF>
      <cc:Work
         rdf:about="">
        <dc:format>image/svg+xml</dc:format>
        <dc:type
           rdf:resource="http://purl.org/dc/dcmitype/StillImage" />
        <dc:title></dc:title>
      </cc:Work>
    </rdf:RDF>
  </metadata>
  <g
     inkscape:label="Layer 1"
     inkscape:groupmode="layer"
     id="layer1">
    <g
       transform="matrix(3.7795276,0,0,3.7795276,-87.013029,-847.44396)"
       id="g9459"
       style="display:inline"
       inkscape:label="controller">
      <g
         id="g3008"
         inkscape:label="misc">
        <path
           inkscape:connector-curvature="0"
           id="path3149"
           d="m 216.26186,306.09244 c -0.0191,-0.87312 -0.0517,-2.02339 -0.0726,-2.55614 -0.0525,-1.33827 0.12097,-8.54755 0.25766,-10.7089 0.28911,-4.57118 0.71508,-6.72148 2.47322,-12.48475 1.7096,-5.60414 2.71469,-10.24413 3.22894,-14.90635 0.36338,-3.29449 0.4367,-4.6846 0.50238,-9.525 0.13792,-10.16522 -0.47438,-15.36298 -2.19747,-18.65407 -0.60545,-1.1564 -1.18913,-1.72784 -2.32774,-2.27893 -2.41532,-1.16901 -9.46696,-2.48171 -15.99564,-2.97766 -2.25336,-0.17118 -8.27366,-0.16959 -10.38602,0.003 -4.65082,0.37942 -10.45375,1.34671 -13.35508,2.22614 -2.37469,0.7198 -3.38195,1.41344 -4.12417,2.84008 -1.1674,2.24389 -1.68496,4.51778 -1.94911,8.56331 -0.18666,2.85894 -0.25448,11.00759 -0.11733,14.09915 0.36449,8.21636 1.03118,12.04093 3.60648,20.68926 1.24692,4.1874 1.49038,5.09357 1.82951,6.80947 0.68114,3.44648 0.85121,6.52482 0.80121,14.50278 l -0.0373,5.94642 18.94887,-2e-5 18.94886,-3e-5 z"
           style="fill:#4d4d4d;stroke-width:0.10762712"
           inkscape:label="head" />
        <path
           inkscape:connector-curvature="0"
           id="rect7508"
           d="M 28.56363,224.44108 22.958288,334.76024 H 86.832942 150.7076 L 145.10225,224.44108 H 92.438285 81.227598 Z"
           style="display:inline;opacity:1;fill:#666666;fill-opacity:1;stroke:none;stroke-width:0.1975385;stroke-linejoin:miter;stroke-miterlimit:4;stroke-dasharray:none;stroke-opacity:1;paint-order:stroke fill markers"
           inkscape:label="base" />
      </g>
      <g
         id="g3071"
         inkscape:label="buttons"
         style="display:inline">
        <rect
           style="opacity:1;fill:#4d4d4d;fill-opacity:1;fill-rule:evenodd;stroke:none;stroke-width:1.05833328;stroke-linejoin:round;stroke-miterlimit:4;stroke-dasharray:none;stroke-opacity:1;paint-order:stroke fill markers"
           id="rect3162"
           width="15.374522"
           height="5.3111987"
           x="189.62611"
           y="231.68126"
           inkscape:label="trigger"
           class="joystick-button" 
           ojd-button="A"/>
        <g
           transform="translate(172.22727,128.37695)"
           inkscape:label="headbuttons"
           id="g2741"
           style="display:inline">
          <path
             inkscape:label="3"
             style="display:inline;opacity:1;fill:#000000;fill-opacity:1;stroke:none;stroke-width:1.39068472;stroke-miterlimit:4;stroke-dasharray:none;stroke-opacity:1;paint-order:stroke fill markers"
             d="M 16.470312,126.93618 V 146.674 h 8.834086 8.834086 v -19.73782 h -8.834086 z"
             id="path2733"
             inkscape:connector-curvature="0" 
             class="joystick-button"
             ojd-button="X"/>
          <path
             inkscape:label="2"
             style="color:#000000;font-style:normal;font-variant:normal;font-weight:normal;font-stretch:normal;font-size:medium;line-height:normal;font-family:sans-serif;font-variant-ligatures:normal;font-variant-position:normal;font-variant-caps:normal;font-variant-numeric:normal;font-variant-alternates:normal;font-feature-settings:normal;text-indent:0;text-align:start;text-decoration:none;text-decoration-line:none;text-decoration-style:solid;text-decoration-color:#000000;letter-spacing:normal;word-spacing:normal;text-transform:none;writing-mode:lr-tb;direction:ltr;text-orientation:mixed;dominant-baseline:auto;baseline-shift:baseline;text-anchor:start;white-space:normal;shape-padding:0;clip-rule:nonzero;display:inline;overflow:visible;visibility:visible;opacity:1;isolation:auto;mix-blend-mode:normal;color-interpolation:sRGB;color-interpolation-filters:linearRGB;solid-color:#000000;solid-opacity:1;vector-effect:none;fill:#000000;fill-opacity:1;fill-rule:nonzero;stroke:none;stroke-width:0.26458332px;stroke-linecap:butt;stroke-linejoin:miter;stroke-miterlimit:4;stroke-dasharray:none;stroke-dashoffset:0;stroke-opacity:1;color-rendering:auto;image-rendering:auto;shape-rendering:auto;text-rendering:auto;enable-background:accumulate"
             d="m 14.409973,150.28876 h 10.894425 10.894426 l 3.670061,3.54087 -5.826003,15.93185 h -8.738484 -8.738485 l -5.826,-15.93185 z"
             id="path2735"
             inkscape:connector-curvature="0" 
             class="joystick-button"
             ojd-button="B"/>
          <path
             style="color:#000000;font-style:normal;font-variant:normal;font-weight:normal;font-stretch:normal;font-size:medium;line-height:normal;font-family:sans-serif;font-variant-ligatures:normal;font-variant-position:normal;font-variant-caps:normal;font-variant-numeric:normal;font-variant-alternates:normal;font-feature-settings:normal;text-indent:0;text-align:start;text-decoration:none;text-decoration-line:none;text-decoration-style:solid;text-decoration-color:#000000;letter-spacing:normal;word-spacing:normal;text-transform:none;writing-mode:lr-tb;direction:ltr;text-orientation:mixed;dominant-baseline:auto;baseline-shift:baseline;text-anchor:start;white-space:normal;shape-padding:0;clip-rule:nonzero;display:inline;overflow:visible;visibility:visible;opacity:1;isolation:auto;mix-blend-mode:normal;color-interpolation:sRGB;color-interpolation-filters:linearRGB;solid-color:#000000;solid-opacity:1;vector-effect:none;fill:#000000;fill-opacity:1;fill-rule:nonzero;stroke:none;stroke-width:0.26499999;stroke-linecap:butt;stroke-linejoin:miter;stroke-miterlimit:0;stroke-dasharray:none;stroke-dashoffset:0;stroke-opacity:1;paint-order:stroke fill markers;color-rendering:auto;image-rendering:auto;shape-rendering:auto;text-rendering:auto;enable-background:accumulate"
             d="M 48.269531,72.361328 C 19.522293,142.53184 39.544411,213.2057 48.136719,286.14844 c 37.957416,0.40838 76.199391,0.13281 114.255861,0.13281 l 0.13281,-0.13281 V 72.494141 l -0.13281,-0.132813 z"
             clip-path="url(#clipPath6968-8-2)"
             id="path2737"
             inkscape:connector-curvature="0"
             transform="translate(-75.223616,17.822442)"
             sodipodi:nodetypes="ccccccc"
             inkscape:label="4" 
             class="joystick-button"
             ojd-button="Y"/>
          <path
             style="color:#000000;font-style:normal;font-variant:normal;font-weight:normal;font-stretch:normal;font-size:medium;line-height:normal;font-family:sans-serif;font-variant-ligatures:normal;font-variant-position:normal;font-variant-caps:normal;font-variant-numeric:normal;font-variant-alternates:normal;font-feature-settings:normal;text-indent:0;text-align:start;text-decoration:none;text-decoration-line:none;text-decoration-style:solid;text-decoration-color:#000000;letter-spacing:normal;word-spacing:normal;text-transform:none;writing-mode:lr-tb;direction:ltr;text-orientation:mixed;dominant-baseline:auto;baseline-shift:baseline;text-anchor:start;white-space:normal;shape-padding:0;clip-rule:nonzero;display:inline;overflow:visible;visibility:visible;opacity:1;isolation:auto;mix-blend-mode:normal;color-interpolation:sRGB;color-interpolation-filters:linearRGB;solid-color:#000000;solid-opacity:1;vector-effect:none;fill:#000000;fill-opacity:1;fill-rule:nonzero;stroke:none;stroke-width:0.26499999;stroke-linecap:butt;stroke-linejoin:miter;stroke-miterlimit:0;stroke-dasharray:none;stroke-dashoffset:0;stroke-opacity:1;paint-order:stroke fill markers;color-rendering:auto;image-rendering:auto;shape-rendering:auto;text-rendering:auto;enable-background:accumulate"
             d="M 48.269531,72.361328 C 19.522293,142.53184 39.544411,213.2057 48.136719,286.14844 c 37.957416,0.40838 76.199391,0.13281 114.255861,0.13281 l 0.13281,-0.13281 V 72.494141 l -0.13281,-0.132813 z"
             clip-path="url(#clipPath6968-8-9-0-6)"
             id="path2739"
             inkscape:connector-curvature="0"
             transform="matrix(-1,0,0,1,125.81681,17.822698)"
             sodipodi:nodetypes="ccccccc"
             inkscape:label="5" 
             class="joystick-button"
             ojd-button="L"/>
        </g>
        <g
           id="g2390"
           inkscape:label="basebuttons"
           style="display:inline">
          <rect
             inkscape:label="9"
             style="opacity:1;fill:#000000;fill-opacity:1;fill-rule:evenodd;stroke:#000000;stroke-width:1.0003047;stroke-linejoin:round;stroke-miterlimit:4;stroke-dasharray:none;stroke-opacity:1;paint-order:stroke fill markers"
             id="rect8331"
             width="13.847967"
             height="8.2431984"
             x="76.603172"
             y="317.99896"
             transform="matrix(0.9961947,-0.08715574,0.05233596,0.99862953,0,0)" 
             class="joystick-button"
             ojd-button="SELECT"/>
          <rect
             inkscape:label="8"
             style="display:inline;opacity:1;fill:#000000;fill-opacity:1;fill-rule:evenodd;stroke:#000000;stroke-width:1.0003047;stroke-linejoin:round;stroke-miterlimit:4;stroke-dasharray:none;stroke-opacity:1;paint-order:stroke fill markers"
             id="rect8331-9"
             width="13.847967"
             height="8.2431984"
             x="-97.145302"
             y="302.83499"
             transform="matrix(-0.9961947,-0.08715574,-0.05233596,0.99862953,0,0)" 
             class="joystick-button"
             ojd-button="R2"/>
          <rect
             inkscape:label="11"
             y="275.67209"
             x="121.67526"
             height="24.85364"
             width="17.139929"
             id="rect8409"
             style="display:inline;opacity:1;fill:#000000;fill-opacity:1;fill-rule:evenodd;stroke:#000000;stroke-width:3.03480601;stroke-linejoin:round;stroke-miterlimit:4;stroke-dasharray:none;stroke-opacity:1;paint-order:stroke fill markers" 
             class="joystick-button"
             ojd-button="11"/>
          <rect
             inkscape:label="6"
             style="display:inline;opacity:1;fill:#000000;fill-opacity:1;fill-rule:evenodd;stroke:#000000;stroke-width:3.03480601;stroke-linejoin:round;stroke-miterlimit:4;stroke-dasharray:none;stroke-opacity:1;paint-order:stroke fill markers"
             id="rect8411"
             width="17.139929"
             height="24.85364"
             x="34.821705"
             y="239.8672" 
             class="joystick-button"
             ojd-button="R"/>
          <rect
             inkscape:label="7"
             y="275.67209"
             x="34.850693"
             height="24.85364"
             width="17.139929"
             id="rect8413"
             style="display:inline;opacity:1;fill:#000000;fill-opacity:1;fill-rule:evenodd;stroke:#000000;stroke-width:3.03480601;stroke-linejoin:round;stroke-miterlimit:4;stroke-dasharray:none;stroke-opacity:1;paint-order:stroke fill markers" 
             class="joystick-button"
             ojd-button="L2"/>
          <rect
             inkscape:label="10"
             style="display:inline;opacity:1;fill:#000000;fill-opacity:1;fill-rule:evenodd;stroke:#000000;stroke-width:3.03480601;stroke-linejoin:round;stroke-miterlimit:4;stroke-dasharray:none;stroke-opacity:1;paint-order:stroke fill markers"
             id="rect8415"
             width="17.139929"
             height="24.85364"
             x="121.67526"
             y="239.99948" 
             class="joystick-button"
             ojd-button="START"/>
        </g>
      </g>
      <g
         id="g3099"
         inkscape:label="labels">
        <g
           inkscape:label="labelshead"
           id="g2779">
          <text
             inkscape:label="2a"
             xml:space="preserve"
             style="font-style:normal;font-weight:normal;font-size:10.58333302px;line-height:1.25;font-family:sans-serif;letter-spacing:0px;word-spacing:0px;display:inline;fill:#ffffff;fill-opacity:1;stroke:none;stroke-width:0.26458332"
             x="194.44382"
             y="291.7298"
             id="text8441"
             sodipodi:insensitive="true"><tspan
               sodipodi:role="line"
               id="tspan8439"
               x="194.44382"
               y="291.7298"
               style="fill:#ffffff;stroke-width:0.26458332">2</tspan><tspan
               sodipodi:role="line"
               x="194.44382"
               y="304.95895"
               style="fill:#ffffff;stroke-width:0.26458332"
               id="tspan8443" /><tspan
               sodipodi:role="line"
               x="194.44382"
               y="318.18814"
               style="fill:#ffffff;stroke-width:0.26458332"
               id="tspan8447" /></text>
          <text
             inkscape:label="3a"
             xml:space="preserve"
             style="font-style:normal;font-weight:normal;font-size:10.58333302px;line-height:1.25;font-family:sans-serif;letter-spacing:0px;word-spacing:0px;display:inline;fill:#ffffff;fill-opacity:1;stroke:none;stroke-width:0.26458332"
             x="193.73697"
             y="268.26489"
             id="text8451"
             sodipodi:insensitive="true"><tspan
               sodipodi:role="line"
               id="tspan8449"
               x="193.73697"
               y="268.26489"
               style="fill:#ffffff;stroke-width:0.26458332">3</tspan><tspan
               sodipodi:role="line"
               x="193.73697"
               y="281.49405"
               style="fill:#ffffff;stroke-width:0.26458332"
               id="tspan8453" /></text>
          <text
             inkscape:label="4a"
             xml:space="preserve"
             style="font-style:normal;font-weight:normal;font-size:10.58333302px;line-height:1.25;font-family:sans-serif;letter-spacing:0px;word-spacing:0px;display:inline;fill:#ffffff;fill-opacity:1;stroke:none;stroke-width:0.26458332"
             x="175.48918"
             y="268.3754"
             id="text8457"
             sodipodi:insensitive="true"><tspan
               sodipodi:role="line"
               id="tspan8455"
               x="175.48918"
               y="268.3754"
               style="fill:#ffffff;stroke-width:0.26458332">4</tspan></text>
          <text
             inkscape:label="5a"
             xml:space="preserve"
             style="font-style:normal;font-weight:normal;font-size:10.58333302px;line-height:1.25;font-family:sans-serif;letter-spacing:0px;word-spacing:0px;display:inline;fill:#ffffff;fill-opacity:1;stroke:none;stroke-width:0.26458332"
             x="213.28108"
             y="267.81418"
             id="text8461"
             sodipodi:insensitive="true"><tspan
               sodipodi:role="line"
               id="tspan8459"
               x="213.28108"
               y="267.81418"
               style="fill:#ffffff;stroke-width:0.26458332">5</tspan><tspan
               sodipodi:role="line"
               x="213.28108"
               y="281.04333"
               style="fill:#ffffff;stroke-width:0.26458332"
               id="tspan8463" /></text>
        </g>
        <g
           id="g8768"
           style="display:inline"
           inkscape:label="basebuttonslabels">
          <text
             xml:space="preserve"
             style="font-style:normal;font-weight:normal;font-size:10.58333302px;line-height:1.25;font-family:sans-serif;letter-spacing:0px;word-spacing:0px;fill:#ffffff;fill-opacity:1;stroke:none;stroke-width:0.26458332"
             x="39.662796"
             y="255.84048"
             id="text8467"
             inkscape:label="6a"><tspan
               sodipodi:role="line"
               id="tspan8465"
               x="39.662796"
               y="255.84048"
               style="fill:#ffffff;fill-opacity:1;stroke-width:0.26458332">6</tspan></text>
          <text
             xml:space="preserve"
             style="font-style:normal;font-weight:normal;font-size:10.58333302px;line-height:1.25;font-family:sans-serif;letter-spacing:0px;word-spacing:0px;fill:#ffffff;fill-opacity:1;stroke:none;stroke-width:0.26458332"
             x="40.411156"
             y="291.76154"
             id="text8471"
             inkscape:label="7a"><tspan
               sodipodi:role="line"
               id="tspan8469"
               x="40.411156"
               y="291.76154"
               style="fill:#ffffff;fill-opacity:1;stroke-width:0.26458332">7</tspan></text>
          <text
             xml:space="preserve"
             style="font-style:normal;font-weight:normal;font-size:10.58333302px;line-height:1.25;font-family:sans-serif;letter-spacing:0px;word-spacing:0px;fill:#ffffff;fill-opacity:1;stroke:none;stroke-width:0.26458332"
             x="70.345337"
             y="318.32809"
             id="text8475"
             inkscape:label="8a"><tspan
               sodipodi:role="line"
               id="tspan8473"
               x="70.345337"
               y="318.32809"
               style="fill:#ffffff;fill-opacity:1;stroke-width:0.26458332">8</tspan></text>
          <text
             xml:space="preserve"
             style="font-style:normal;font-weight:normal;font-size:10.58333302px;line-height:1.25;font-family:sans-serif;letter-spacing:0px;word-spacing:0px;fill:#ffffff;fill-opacity:1;stroke:none;stroke-width:0.26458332"
             x="96.911926"
             y="318.32809"
             id="text8479"
             inkscape:label="9a"><tspan
               sodipodi:role="line"
               id="tspan8477"
               x="96.911926"
               y="318.32809"
               style="fill:#ffffff;fill-opacity:1;stroke-width:0.26458332">9</tspan></text>
          <text
             xml:space="preserve"
             style="font-style:normal;font-weight:normal;font-size:10.58333302px;line-height:1.25;font-family:sans-serif;letter-spacing:0px;word-spacing:0px;fill:#ffffff;fill-opacity:1;stroke:none;stroke-width:0.26458332"
             x="123.47852"
             y="255.84048"
             id="text8483"
             inkscape:label="10a"><tspan
               sodipodi:role="line"
               id="tspan8481"
               x="123.47852"
               y="255.84048"
               style="fill:#ffffff;fill-opacity:1;stroke-width:0.26458332">10</tspan></text>
          <text
             xml:space="preserve"
             style="font-style:normal;font-weight:normal;font-size:10.58333302px;line-height:1.25;font-family:sans-serif;letter-spacing:0px;word-spacing:0px;fill:#ffffff;fill-opacity:1;stroke:none;stroke-width:0.26458332"
             x="123.47852"
             y="290.26477"
             id="text8487"
             inkscape:label="11a"><tspan
               sodipodi:role="line"
               id="tspan8485"
               x="123.47852"
               y="290.26477"
               style="fill:#ffffff;fill-opacity:1;stroke-width:0.26458332">11</tspan></text>
        </g>
      </g>
      <g
         id="g3110"
         inkscape:label="analog">
        <circle
           r="29.299776"
           cy="275.67609"
           cx="86.832932"
           id="path8216"
           style="opacity:1;fill:#4d4d4d;fill-opacity:1;fill-rule:evenodd;stroke:#000000;stroke-width:0.5;stroke-linejoin:miter;stroke-miterlimit:4;stroke-dasharray:none;stroke-opacity:1;paint-order:stroke fill markers"
           inkscape:label="joystickbase" />
        <g
           transform="translate(-6.8186826,-4.0361115)"
           id="g8845"
           style="display:inline"
           inkscape:label="scroll">
          <rect
             style="opacity:1;fill:#000000;fill-opacity:1;fill-rule:evenodd;stroke:none;stroke-width:2;stroke-linejoin:round;stroke-miterlimit:4;stroke-dasharray:none;stroke-opacity:1;paint-order:stroke fill markers"
             id="rect8815"
             width="10.318749"
             height="20"
             x="128.49394"
             y="314.74036"
             inkscape:label="background" />
          <path
             inkscape:connector-curvature="0"
             d="m 135.38337,314.69358 h -3.50755 m 3.50755,9.97474 h -0.63865 -2.8689 m 3.50874,10.05417 H 131.877"
             style="fill:#cccccc;stroke:#949494;stroke-width:1.05833328;stroke-linecap:butt;stroke-linejoin:miter;stroke-miterlimit:4;stroke-dasharray:none;stroke-opacity:1"
             id="path8839"
             inkscape:label="foreground" />
        </g>
      </g>
    </g>
  </g>
</svg>
